<svg xmlns="http://www.w3.org/2000/svg" viewBox="0 0 2451.25 2687.58" fill="#fff" stroke="#fff" ><title>sankalan</title><path d="M2594,2218.65c.25,9.26,4.57,22.22.07,27.15-24.84,27.24-5.22,50,4.52,74.14,11.82,29.26,23.5,58.58,37.22,92.82l19.34-28.49,32,83.63,12.7-3.05-50.88-294.43c3.8,10.35,8.61,22.17,12.45,34.3,4,12.5,7.91,25.13,10.22,38,15,83.67,41.07,167.29,42.07,251.18,2.32,193.65-31.5,382.14-121.06,557.14-4.49,8.77-11.56,17.32-12.64,26.53-5.14,44-15,62.3-46.36,84.22-6.8,4.76-11.33,13.11-16.15,20.32-57.66,86-124.46,164.19-203.17,231.59q-370.61,317.39-857.75,284.17c-227.91-15.68-429.51-100-616.48-230.09-54.7-38.07-106.34-78.93-158.56-119.64l1.12,1.13-32-38.25,5.43-5.16,25.07,16.79L581.08,3197.22l7.7-6.11c15.9,19.8,31.66,39.71,47.72,59.37,72.27,88.43,154.15,166.27,253,224.5,45.47,26.78,92.49,50.95,138.78,76.33,23.47,12.87,46,28,70.61,38.05,22.35,9.1,53.75,24.81,69.23,16.19,37.09-20.66,57.8,7.67,84.95,20.11l-47.44-5.69-1.51,7c29.23,7.58,58.2,16.41,87.73,22.54,200.3,41.53,398.35,32.41,593.39-29.58,22.45-7.13,41.89-23.29,63.95-32.28,12.86-5.24,29.6-1.34,42.11-7,361-163.62,588.69-437.23,678.77-824.22,16.2-69.58,22.85-139.05,2.89-206.19l-13.93,41-6.45-1-5.72-22.38c-36,43.62-13.21,98.9-35.71,144.25l6.56-54.9-9.92-3c-10.18,30.7-20.78,61.28-30.42,92.15s-18.74,61.89-27.31,93.05c-30,109.18-83.91,207.85-135.79,307.3-6.46,12.39-20.83,20.61-31.36,30.94-6.87,6.74-14.51,13.06-19.93,20.86-36.43,52.44-70.79,106.41-109.2,157.34-16.59,22-39.9,39.75-62.56,56.1-25.74,18.58-60.28,28.14-80.1,51.05-36.1,41.72-88,55.74-130.56,85.3-31.16,21.62-71.91,30.69-109.47,41.59-137.21,39.8-277.5,55.84-420,45.44-35.43-2.59-69.82-17.75-105.29-21.93-63.69-7.51-122-32.45-181-53.83-60.3-21.88-118.94-50-175.08-81.15-52.58-29.2-102.88-63.49-150.51-100.29-35.62-27.51-65.41-62.56-97.78-94.27-5.41-5.3-9.78-13.37-16.23-15.65-40.77-14.38-57-53.37-84.72-80.87-57.69-57.18-87-131.88-127.44-199.29-23.39-39-31.79-87-46.92-130.9-3.66-10.61-7.24-21.25-10.86-31.88l-10.69,3.83,53.16,160.4c-48.12-69.45-56.23-153.61-84.09-230.43l-7.83,1.82,27.87,118.68-6.34,1.7c-10.59-38.66-22.47-77-31.56-116-43.11-185-38.8-430.46,47.28-657.33,1.11-2.93,1.71-6,5.07-18.19-7.61,10.6-10,13.9-12.36,17.24-2,2.93-4,5.93-6,8.89l-8.94-6.34c13.93-18.1,28.31-35.88,41.61-54.43,6.27-8.74,10.92-18.76,15.54-28.55q139.43-295.49,411.44-476.42c359.38-239,821.31-256.72,1196.08-55.52,63.71,34.2,126.81,69.53,190.19,104.34l-1.13-1.13q65.06,74.49,130.08,149c21.62,24.9,42.78,50.2,60.68,78.59-110.54-134.29-244.07-238.89-397.69-318.75-90.55-47.07-189.32-68.64-284.5-101.36l-3.65,9.8,41.56,14.29-1.15,4-156.3-20.79.62-9h51.31l.59-7.21c-18.41-2.7-36.75-6.26-55.25-8-117.51-10.71-234.45-5.79-349.76,19.28-110.32,24-216.72,59.52-316.43,114.16-102.63,56.25-195.57,125-277.48,208.35a1159.11,1159.11,0,0,0-202.07,278C461.68,2111,421.66,2218.83,404.47,2333c-11.83,78.62-14.66,158.86-17,238.5-.72,24.46,13.52,49.35,28.6,73.28l8.58-45.22L437,2645.11l9.71-.16V2425.56l13.62.23v109.84l18.91-24.69,9.13,132.72,6.74-.64V2486.75l-16.75,12.47c-7-17.49-8.22-30.34,13.12-38.74,5.38-112.94,24.92-227.57,67.78-337.2,17.45-44.64,41.51-86.12,69-126,40.87-59.38,78.17-121.22,117.19-181.88,4-6.17,9.3-11.45,20.18-24.63l-9.69,38.77c7.87-5.12,12.12-6.52,14.23-9.46,27.44-38.21,49.43-82.07,82.9-113.84,61.05-58,111.08-128.32,199.48-156.45,67.83-21.59,129-63.56,194.23-94.2,16-7.52,36.66-4.43,54.37-9.2,102.4-27.59,207.12-30.34,311.62-24.69,111.94,6.06,219.44,34.74,321.57,81.9,52.2,24.11,106.17,45.11,156,73.34,46.2,26.15,88.08,60,131.68,90.68,5.27,3.71,8.59,11.68,14.11,13.32,46.92,14,73.36,55.31,110.84,80.9,54.89,37.47,83.67,95.37,123.36,143.64,40.59,49.35,67,111.55,93.74,170.77,24.16,53.46,41,110.3,59.78,166.08,4.81,14.26,4.8,30.15,2.81,46.17-32.69-136.37-87.71-261.52-171.51-373.54,57.76,96.14,106.24,196.53,139.24,304-4.86-6.49-11-12.35-14.26-19.51-14.67-32.11-28.54-64.59-45.22-102.7,1.15,23.16,0,38.67,3.15,53.29,3.4,16,13.66,30.79,15.44,46.73,1.7,15.24,29,20.59,14.11,40.4,5.82-.83,12.89.08,17.12-3C2589.19,2230.95,2591,2224,2594,2218.65ZM892.43,1743.27c-10,23.34-50,24.52-43.92,59.68-43.66,46.15-89,90.83-130.58,138.8a717.92,717.92,0,0,0-132.41,226.62c-28.93,80-54.95,162-71.42,245.26-11.73,59.31-5.7,122.16-7,183.44-.12,5.36,4,10.8,8.37,21.65l6.26-23.49c3,28,1.62,55.19-.39,82.37-1.08,14.62-8.1,30.86-3.81,43.42,12,35.29,19.69,71.55,29.9,107.08,11.59,40.33,33.2,77.81,50.72,116.4q13.46,29.66,27.89,58.88c15.52,31.45,28.54,64.64,47.94,93.52,21,31.22,47,59.29,72.7,87,41.85,45.23,82.64,91.94,128.44,132.92,92.26,82.57,206.31,127.06,320.51,168,62.48,22.4,129.17,33.3,194.26,48.13,24.34,5.54,49.43,10,74.28,10.57,44.56,1,89.2-1.1,133.79-2.15,36.35-.86,72.86-.36,109-3.85,18.65-1.8,36.53-11.17,54.86-16.77,62.23-19,124.27-38.69,186.83-56.52,55.88-15.93,87-65.57,133.13-95,42.67-27.22,81.81-60.13,121.49-91.82,36.2-28.91,75.52-55.67,105.41-90.33,45.78-53.11,87.69-110.23,125.57-169.29,35.91-56,69.51-114.61,94.69-175.95,18.75-45.65,23.12-97.35,32.67-146.59,13.33-68.68-10-139.48,13.41-208.49,6.87-20.28-1-46.36-5.17-69.23-2-11.12-18.16-23.17-15.73-31,13.35-43.1-8.3-79.82-18.81-117.91-12.39-44.89-30.07-88.32-45.6-132.34-6.37-18.07-10.67-37.44-20.17-53.73-25.91-44.47-51.11-89.88-82.07-130.77-47.58-62.82-96-125.89-151.19-181.79a625.58,625.58,0,0,0-143.11-107.68c-67.29-36.81-139.57-65.28-211.57-92.37-39.08-14.7-82-19.25-123.26-28.06-39.25-8.39-78.36-21.64-117.95-23.43-81.17-3.67-162.62-1.1-244-1.1l-.38,4.39,15,4c-45.89,7.84-93,5.76-137,16.36-44.89,10.81-86.77,34.08-130,51.89-9.23,1.42-20.21.1-27.43,4.68C1041.52,1646.35,967.06,1694.94,892.43,1743.27ZM2039,3448.63l4.19,6.78,96.89-61.79-4.75-7.49Z" transform="translate(-288.39 -1349.83)"/><path d="M2029.9,1397.47l91.17,42.13,3.1-7-141.46-68.41c27.22-29.29,53-7,78,6.53,47.9,25.9,96.18,51.47,141.91,80.9,30.09,19.37,54,48.54,84.29,67.4,37.64,23.4,66.26,59,112,72.91,19.6,5.94,31.52,36.93,47.14,56.37,6.73,8.37,14.25,16.11,21,24.5,42.86,53.49,85.73,107,128.13,160.83,3.36,4.27,3.13,11.38,1.24,18.91-17.81-24.32-49.34-36.55-50.58-75.3-.42-13-25.89-25.67-40.67-37.54-9.35-7.51-21.62-11.74-30-20.05-41.72-41.52-81.06-85.54-124.25-125.42-30.77-28.41-66.2-51.81-99.84-77a41.46,41.46,0,0,0-17.5-7.62c-17.25-2.8-32.45-3.29-36.14-28-1.33-9-24-16.1-37.9-21.56-44.62-17.48-89.7-33.78-134.6-50.54Z" transform="translate(-288.39 -1349.83)"/><path d="M433.25,3144.11c20.37,16.65,44,30.66,60.34,50.59,22.68,27.61,36.7,62.54,60.26,89.17,36.1,40.79,77.75,76.61,115.92,115.63,25,25.53,47.34,53.62,72.23,79.25,8.78,9,21.37,14.55,32.57,21.07q66,38.44,132.24,76.48l-5.41,9.17-90.66-57.07-4.05,5.62,130.59,88.8-1.22,3.64-47.9-19.8-1.71,3.73,34.45,20.93-2.44,5.09c-7.82-2.54-17-3.26-23.24-7.89-61.34-45.23-124.39-88.51-182.4-137.72-37.64-31.93-66.51-74-101.65-109.16-20.21-20.23-51.3-31.58-66.66-54.26-40.05-59.13-74.14-122.3-110.6-183.86Z" transform="translate(-288.39 -1349.83)"/><path d="M2635.06,2223.46c-43.59-132-100.07-257.66-179.88-372C2544.46,1961.19,2605.6,2084.62,2635.06,2223.46Z" transform="translate(-288.39 -1349.83)"/><path d="M2275.75,1599l-24.17-37c59.8,10.83,245.4,181.86,242.72,217.9-58.51-54.83-119.21-112.69-181.38-168.91-9.21-8.33-25.36-9-38.3-13.18C2274.62,1597.87,2275.75,1599,2275.75,1599Z" transform="translate(-288.39 -1349.83)"/><path d="M429.79,2028.26c30.42-96.75,88.06-175.56,161.66-243.86Z" transform="translate(-288.39 -1349.83)"/><path d="M2560.41,3189.35c-43.09,90.5-111.3,158.11-192,214.37Z" transform="translate(-288.39 -1349.83)"/><path d="M2685.88,2930.11c-20,79.95-43.15,158.52-104.83,220Z" transform="translate(-288.39 -1349.83)"/><path d="M423.32,2059.52l-76.11,230.77-5-.86c6.38-29.11,13.49-58.09,18.79-87.39,2.12-11.75.2-24.22.26-36.36,0-4.31-.86-9.34,1-12.82,16.23-30.77,32.94-61.3,49.78-91.74C412.65,2060,416.13,2060.45,423.32,2059.52Z" transform="translate(-288.39 -1349.83)"/><path d="M682.65,3349.27l-1.12-1.13L697.37,3392c-13.89-9.29-24.16-13.83-31.33-21.34-38.28-40.08-76.2-80.53-113.13-121.84-5.43-6.08-4.94-17.46-7.19-26.39l-.68.6c20,21.61,41.35,42.17,59.7,65.12C626.14,3314.91,644,3345,682.65,3349.27Z" transform="translate(-288.39 -1349.83)"/><path d="M309.48,2183.87c18.75-103.33,67.15-199.45,116.08-288.71Z" transform="translate(-288.39 -1349.83)"/><path d="M878.56,3504l-23.18,30.26L794.14,3486l4.71-8.92Z" transform="translate(-288.39 -1349.83)"/><path d="M2139.83,1489.09l-82.45-16.74C2077.92,1435.73,2094.59,1438.8,2139.83,1489.09Z" transform="translate(-288.39 -1349.83)"/><path d="M387.13,3131.72l-63.35-126.13,14-6.67,60.16,128.25Z" transform="translate(-288.39 -1349.83)"/><path d="M2658.36,1892.48l-70.89-111.28,9.78-6.28,72.54,109.32Z" transform="translate(-288.39 -1349.83)"/><path d="M433.92,3143.51c-26.31-25-36-57-37.42-92.36,16.59,29.21,53.33,50.19,36.75,93Z" transform="translate(-288.39 -1349.83)"/><path d="M2680.41,1995.08c-3.17-.13-8.35.91-9.21-.58-22-37.71-43.63-75.68-65.3-113.61l12-6.47,62,121.17Z" transform="translate(-288.39 -1349.83)"/><path d="M2572.24,2906.21l38.37-180.87,9.39,2-41.27,179.79Z" transform="translate(-288.39 -1349.83)"/><path d="M2679.88,1995.6l7.72,17.9c6.33,14.67,7.87,12.33,27.15,25,10.31,6.77,14.27,23.23,24.88,42l-22.7-8.22v23.93l-6.8,1.65q-15-51.27-29.86-102.67C2680.41,1995.08,2679.88,1995.6,2679.88,1995.6Z" transform="translate(-288.39 -1349.83)"/><path d="M382.06,3027.07c-9.14-40.71-43-72.42-44.55-115.89l10.79-3.93,42.35,116.69Z" transform="translate(-288.39 -1349.83)"/><path d="M319.73,2863.2l-31.34-46.07L302,2816l13.18-28.14,15.23,70.36Z" transform="translate(-288.39 -1349.83)"/><path d="M525.81,2123.81l-40.14,141.4-7.38-2L517,2121.84Z" transform="translate(-288.39 -1349.83)"/><path d="M545.72,3222.42c-45.26-40.26-60.89-65.51-53.55-90L545,3223Z" transform="translate(-288.39 -1349.83)"/><path class="cls-1" d="M1144,1594l-65.18,41.37-159.27,101-27.13,6.86c74.63-48.33,149.09-96.92,224.15-144.56C1123.8,1594.13,1134.78,1595.45,1144,1594Z" transform="translate(-288.39 -1349.83)"/><path class="cls-1" d="M2594,2218.65c-3,5.33-4.77,12.3-9.26,15.51-4.24,3-11.3,2.13-17.12,3,14.86-19.81-12.41-25.16-14.11-40.4-1.78-15.94-12-30.75-15.44-46.73-3.11-14.62-2-30.13-3.15-53.29,16.68,38.11,30.54,70.59,45.22,102.7,3.27,7.16,9.39,13,14.26,19.51Z" transform="translate(-288.39 -1349.83)"/><path d="M892.43,1743.27l27.13-6.86c-1.68,5.5-1.62,13.13-5.33,16.14-21.42,17.4-43.72,33.71-65.72,50.39C842.41,1767.8,882.47,1766.61,892.43,1743.27Z" transform="translate(-288.39 -1349.83)"/><path class="cls-1" d="M2039,3448.63l96.34-62.5,4.75,7.49-96.89,61.79Z" transform="translate(-288.39 -1349.83)"/><path class="cls-1" d="M1689.9,4035.94l35.72-81.16,38.15,81.16Z" transform="translate(-288.39 -1349.83)"/><path class="cls-1" d="M627.29,3953.93,665,4036.12h-73.3Z" transform="translate(-288.39 -1349.83)"/><path class="cls-1" d="M2467.9,4037.41h-74l35.37-83.1Z" transform="translate(-288.39 -1349.83)"/><path d="M2014.44,3063.43c-23.55-15.76-46.81-32-70.74-47.17-27.42-17.39-55.56-17.52-83.67-.9-32,18.92-64.37,37.24-96,56.81-20.08,12.43-38.64,14.13-57-2.21-58.78-52.32-117.53-104.69-172.29-163,26.86,14.67,52.68,31.94,80.92,43.12,19.88,7.87,55.09,17.28,62.14,8.64,13.28-16.31,16.59-45.64,14.48-68.68-6.39-69.75-49-122.52-90.5-175.14-37.17,2.6-43.53-37.94-71.1-50.72-28.39-13.16-53.26-34.1-79.18-52.33-68-47.83-136.37-95.12-203.36-144.3-101.45-74.47-162.4-170.08-166.75-300.94-1.45-43.67-24.41-87.26-41-129.51-8.54-21.7-24.77-40.37-40.08-64.42l1017.46,1088Z" transform="translate(-288.39 -1349.83)"/><path d="M1054.49,1900.08l62.71,71.45,10-6.54c-12.1-55-58-90.91-89-135.23l6.29-5.19L2074.29,2911.7l-1.79,3.83c-18.83-10.88-36.68-24.5-56.82-31.69-13.29-4.74-29.88-.26-45,.1,2.1,11.91,1.29,25.4,6.76,35.48,47.94,88.32,119.54,155.78,195.76,219,8.82,7.32,16.88,15.57,25.29,23.39l-6.63,8.64c-32.36-23.62-68.07-43.81-96.42-71.52-73.53-71.85-144.93-146-215.17-221.07Q1671.52,2654.69,1465,2429.4q-239.11-259.93-476.91-521.08c-21.83-24-40.62-50.68-58.37-78.64,62,39.15,88.12,120.11,167.5,139.88L1048,1905.31Z" transform="translate(-288.39 -1349.83)"/><path d="M1370.3,3031.86l-26.09-18,6.2-8.47c16.84,10.72,37.72,18.15,49.67,32.84,24,29.48,54.84,36.94,89.34,39.69,21.8,1.73,43.78,3.05,65.17,7.16,11.48,2.2,21.9,9.92,32.79,15.15l-1.62,9.46c-12.11,1.15-24.2,3-36.33,3.33-126.89,3.08-250.9-13.39-371.06-55.42-8.22-2.87-16.08-6.74-24.2-9.91-40.59-15.85-61.56-40.46-57.92-89,3.37-44.94-6.73-90.77-8.86-136.31-.53-11.3,9.36-22.81,10.08-34.49,2.65-43-9.49-82.4-35.91-116.55-24.71-31.93-50.61-62.94-77.29-96,51.1,16.07,132.8,96.58,155.5,154,39,98.54,85.65,192,167.41,263.08,18.52,16.1,38.63,30.37,58,45.48Z" transform="translate(-288.39 -1349.83)"/><path d="M2014.69,2328.45c-60.93-40-125.25-74-151.62-152.2-33.72-100-86.16-189.5-178.39-248.3-77.47-49.38-161.37-60.38-258.63-38.36l55.28,42.39-5.83,8-107.43-70,4.34-14c53.13-2.31,106.29-7.19,159.37-6.41,116.54,1.73,230.49,19.1,339.55,63.21,26.17,10.58,37.36,25.36,36.26,54-1.89,49.19,1.62,98.63-1.05,147.75-3.4,62.51,19.59,113.22,61.93,156.52,17.11,17.49,36.45,32.8,54.77,49.1Z" transform="translate(-288.39 -1349.83)"/><path d="M1172.28,1734.31q53.24,51.75,106.46,103.51c21.86,21.33,43.12,43.31,65.42,64.16,24.2,22.63,22,46.58,7.66,73-90.51-58.09-115.28-164-186.66-234.42Z" transform="translate(-288.39 -1349.83)"/><path d="M1692,3089c-38.75-.39-71-27.79-95.35-82.15Z" transform="translate(-288.39 -1349.83)"/><path d="M1519.4,2854.84l-74.36-61,6.38-8.5,77.52,57.62Z" transform="translate(-288.39 -1349.83)"/><path d="M1449.38,2910.82l-48-58.42C1435.43,2858.16,1457.93,2884.77,1449.38,2910.82Z" transform="translate(-288.39 -1349.83)"/><path d="M1932.07,3459.85l-84.12,35.47-3-6.58,82-40.08Z" transform="translate(-288.39 -1349.83)"/><path d="M1067.16,2311.45l61.57,73.34-7.08,6.4L1059.39,2319Z" transform="translate(-288.39 -1349.83)"/></svg>